# xmcd
#
# Track frame offsets:
#	150
#	12928
#	27418
#	42205
#	58632
#	79117
#	96021
#	110464
#	127058
#	149295
#	167354
#	183222
#	197858
#	210275
#	226395
#
# Disc length: 3196 seconds
#
# Revision: 1
# Processed by: cddbd v1.5.2PL0 Copyright (c) Steve Scherf et al.
# Submitted via: audiograbber 1.83.01
#
DISCID=c10c7a0f
DTITLE=Various Artist - Juice CD#72
DYEAR=2007
DGENRE=Hip Hop/Rap
TTITLE0=Million Stylez - Juice A Murder
TTITLE1=Mok feat. Sido - Strassenmucke
TTITLE2=Jeyz - Bis An Die Spitze
TTITLE3=Ercandize - Represent
TTITLE4=Taichi - Lauf
TTITLE5=Lutsch Dran - Poppstars
TTITLE6=Megaloh and Sprachtot - So Was Von Egal
TTITLE7=Beatfanatika - Tellerwäscher
TTITLE8=Flo-Rida - Birthday
TTITLE9=UGK feat. Jazz Pha - Stop-N-Go
TTITLE10=J. Bully - Make It Happen
TTITLE11=Sean Price feat. Rock Of Heltah Skeltah - P-Body
TTITLE12=Black Milk feat. Guilty Simpson - Sound The Alarm
TTITLE13=O-Solo - Monsta
TTITLE14=Ta'Raach and The Lovelutio feat. Blu - Merci Me Lord
EXTD=
EXTT0=
EXTT1=
EXTT2=
EXTT3=
EXTT4=
EXTT5=
EXTT6=
EXTT7=
EXTT8=
EXTT9=
EXTT10=
EXTT11=
EXTT12=
EXTT13=
EXTT14=
PLAYORDER=
